<svg id="Snorkfröken_5_Image" data-name="Snorkfröken 5 Image" xmlns="http://www.w3.org/2000/svg" viewBox="0 0 2400 2400"><defs><style>.cls-1{fill:#fff;}.cls-1,.cls-2,.cls-3{fill-rule:evenodd;}.cls-2{fill:#fef065;}.cls-3{fill:#0e5256;}</style></defs><title>fillyjonk</title><path class="cls-1" d="M1615.21,766.06c1.07-1.6,108.06-16.51,108.06-16.51s143.73-6.38,146.39-6.92,70.27-1.06,70.27-1.06l1.06-45.25,22.89,18.1s29.28,13.31,30.88,13.31,44.18-.53,44.18-.53L2098,701.65l26.62-19.17,18.1-25L2147,633l-12.25-7.46h-22.89l-50-2.66-54.83,1.6-54.83-3.73-74.52-26.08-22.36-10.11-26.09-22.89L1789.81,493l-35.66-54.83-33-47.38-29.27-47.91-9.58-41.52-17.57-37.26-43.65-62.81-35.67-36.73-60.15-36.73-56.42-22.36-18.63.53L1431,111.84l-10.64,20.23.53,20.76,13.31,18.63,19.69,9s19.7-3.2,21.83-4.26,10.64-9.05,10.64-9.05,6.39-16.5,6.39-18.1-.53-22.36-.53-22.36l9.58,8,20.23,19.16,19.69,25,8,20.23,8,21.29s1.6,30.88,2.13,32.47S1552.4,288,1552.4,288l-16.5,41-25,7.46-110.19,1.06-129.35-4.79-178.86-14.37-7.45,9.05,15.43,5.32s58.56,14.37,60.16,14.37,67.07,8,67.07,8,119.24,5.32,122.43,5.32,43.12,3.73,43.12,3.73l-2.66,6.92-40.46,4.26-96.88,5.85-86.77,2.66-88.36-8.51s-49,2.66-49,1.06-1.06,6.39,2.13,6.92,28.75,6.92,28.75,6.92,112.85,26.08,115,26.08,49,5.33,49,5.33l-6.39,6.92-20.23,5.85L1118,440.81l-77.19-2.66-66.54-6.39-4.25,8,14.37,9s113.38,31.94,118.17,33,51.64,13.84,51.64,13.84l-.53,7.45-23.43,3.2-59.62-3.73s-63.34-18.1-64.94-18.1-66.54-20.23-66.54-20.23l-4.26,5.86L945,482.33l31.94,17,55.89,21.29,27.15,5.85-4.26,5.86h-39.92l-72.93-5.32-12.25,1.06,4.8,8.52,31.93,14.9,63.35,24s37.79,12.24,39.92,12.24,82,1.06,82,1.06,69.73,2.67,71.33,2.67,72.93,1.06,72.93,1.06-29.81,18.1-31.94,18.1-76.12,41-76.12,41l-53.77,36.2L1049.89,748,992.4,794.27l-32.47,36.2-25,31.4L870,862.94l-94.22,1.59-1.6-29.81,10.65-26.08,10.65-28.92,21.29-27.33-2.13-19.52L804,724l-12.06-.35-5-28.75-11-67.78-16.33-36.2-22.35-21.64-23.78-.36-25.2,11.36-41.16,43.29L576.84,718,528.58,785.4l-35.84,71.33-28.39,71.33L447,996.55l-7.46,37.26-.71,29.46L448,1084.2l19.52,7.46s40.81-2.13,44-2.84,53.95-20.59,56.07-20.94,52.88-20.23,52.88-20.23l-4.26,12.78s7.1,7.8,9.94,7.09,13.84-5,13.84-5l17.74-25.2s34.78-59.62,36.2-61,18.45-17.74,18.45-17.74l17.75-10.65,14.19-2.84L761,944l51.46,28.39,18.45-14.55,17.75-24.13L762.44,916l12.07-22,97.23,7.45-5.32,14.91-21.29,30.52-22.36,22.71-22.71,27-51.81,72.75-63.53,105.4-66,170.34-23.78,93-17,105.75-1.42,113.92,11.71,126.69L609.14,1882l19.87,76.3-8.87,7.8-111.08,53.24,8.52,10.29L563,2043.79l-101.32,50.93-22.35,18.1s-2.13,14.37-2.13,16,5.32,16.5,5.32,16.5l10.65,1.59s27.14-22.35,28.74-24,46.85-26.08,46.85-26.08v6.38l-13.84,16-18.64,30.88-14.9,44.71-5.32,35.67,5.85,48.44,4.26,15.44,20.76,3.72,8.52-5.85s10.64-43.12,12.77-46.31S560.16,2141,560.16,2141l50.57-50.57,36.73-12.78,12.25-1.06,41,10.65,76.66,18.63,71.86,8,65.47-9.58,117.11-46.84,125.1-50.57,90-33.54-3.19-50.57-1.07-95.82,4.79-100.07-6.92-44.19-25-39.92-38.86-22.89-39.39-13.84-53.76.53,6.92-19.16,41-90,52.7-104.34,30.87-60.15,22.89-37.79,3.73,22.89,9,20.23,6.38,10.64,10.65,4.79,46.84-3.72,68.67-17s65.48-19.69,67.61-20.23,67.07-21.29,67.07-21.29l19.7-8,1.59-17,26.09-8,44.71-16-3.73,14.37,15.44,10.65s34.6,3.72,36.73,3.19,42.05-5.32,42.05-5.32l8-8.52,10.65-43.12,9-47.37.54-36.73-13.31-20.76-14.37-11.18,11.71-20.76-1.07-16-11.71-3.73-9.58,6.39L1620.54,1111l-47.38,30.34-36.73,24-102.2,29.81-58,11.18v-16l11.71-93.15L1394.3,995l4.79-48.44,29.28,18.1,33,26.08,35.67,20.23,5.32-5.32-3.72-20.76-12.78-20.23-36.2-28.21L1418.26,914l10.64-4.26,35.14,9.05,20.22,11.71L1506.09,946l36.73,20.76,4.26-7.45-10.65-26.62-33-34.07-33.54-21.29-41-14.91,9-6.92,41,2.67L1505,864l13.84,8,14.38,20.76,18.1,14.37,6.92-3.19-1.07-15.44-17-46.85-80.38-17L1431,817.16l14.91-9,29.81,5.85,14.9,11.72,23.42,6.38,23.43,5.86-1.6-23.42-.53-21.3,11.17-4.25,24,13.84,11.18-9,9-21.83Z"/><path class="cls-2" d="M756.59,914.86c7.3-16.45,21.89-72.68,10.15-78.8s-41.29,21.82-53,54.82-16.65,57.49-6.73,62.28S742.75,946,756.59,914.86Z"/><path class="cls-2" d="M1597.47,1439.08l-38.68,3.19-57.49,16.78s-27.33,8.76-27.33,11.43,14.58,68.32,14.58,68.32S1503,1691,1503,1713.76s-4.88,211.15-14.49,275.38,25.88,2.13,25.88,2.13l25.19-82.84,39-120.15,37.62-133.08,21.65-103.62s3.64-53.38,5.26-55,9.64-43.65,9.64-43.65l-9.64-15.61Z"/><path class="cls-3" d="M1559.75,393c-5.14,5.38-12.85,2.17-18.81,2.69-36.7,3.2-82.47,3.69-124.94,4-47.88.39-95.43,4.28-138.38,1.34-9.9-.67-21.21.28-28.21-6.72,90.65-5.16,178.56-.8,276.75-5.37C1535.79,388.51,1553.57,383.69,1559.75,393Z"/><path class="cls-3" d="M1487.2,511.21c-6.33-2-7.39-8-12.09-12.09-7.62-6.7-20-8.23-25.52-17.47C1466.55,481,1490.1,492.06,1487.2,511.21Z"/><path class="cls-3" d="M1416,612c1,14.61-17.84,4.52-25.53,4,.18-2.41-1.64-2.83-1.34-5.37C1396.47,607.7,1408.36,610.81,1416,612Z"/><path class="cls-3" d="M1851.29,612c-4.91,6.74-10.29,13-17.47,17.46-.39-2.73-3.63-2.63-4-5.37C1832,615.84,1842.09,604.71,1851.29,612Z"/><path class="cls-3" d="M1983,629.43c3.66-1,2.7,2.67,5.37,2.69-1.75,9.1-7,20-16.12,17.47C1971.92,639,1979.77,636.56,1983,629.43Z"/><path class="cls-3" d="M1965.49,634.81a39.53,39.53,0,0,1-10.75,18.81C1942.08,650.42,1957.56,625.76,1965.49,634.81Z"/><path class="cls-3" d="M2003.1,634.81c3.35,6.14-5.9,16.87-12.09,9.4C1992.05,638.54,1996.12,630.24,2003.1,634.81Z"/><path class="cls-3" d="M2058.18,633.47c2.57,5.38.38,12.47-1.34,17.46C2046.67,653,2047.45,630.13,2058.18,633.47Z"/><path class="cls-3" d="M1574.53,750.35c.52,10.37-1.23,16.14-8.06,16.12C1553.66,766.43,1559.26,739.72,1574.53,750.35Z"/><path class="cls-3" d="M1553,775.87c-8.94,1.33-11.91-3.3-16.12-6.71C1534,744.35,1565,761.85,1553,775.87Z"/><path class="cls-3" d="M1370.32,961.28c6.25,10.21-3.56,23-9.4,29.55C1342.09,987.39,1352.18,958.62,1370.32,961.28Z"/><path class="cls-3" d="M1342.11,1037.85c5.3,14.36-10.34,32.19-22.84,20.16C1319.17,1043.75,1329.05,1030.69,1342.11,1037.85Z"/><path class="cls-3" d="M1311.2,1105c4.88,8.62-1.56,24.77-9.4,25.52C1283.93,1132.28,1292.5,1098.21,1311.2,1105Z"/><path class="cls-3" d="M1596,1189.67c-.26,10-9.78,10.82-16.13,14.78C1575.08,1194.36,1586,1189.27,1596,1189.67Z"/><path class="cls-3" d="M1657.78,1366.47c.42.13,1-.19,1.41-1,7.39-14.78,13.86-30.12,20.77-45.13l4.64-10.07,4.63-10.07.49-1.06c2.59-5.63,9-12.26,13.65-8.14,3.1,2.75,1.72,7.79.1,11.6L1657.94,1410c-2.34,5.52-4.72,11.26-4.56,17.26.17,6.23,3.07,12,4.32,18.15,1.69,8.27.31,16.82-1.07,25.14-5.63,34-11.27,68-17.82,101.86-34.36,177.48-93.58,349.11-156.18,518.69l-22.18-6.59a1429,1429,0,0,0,8.44-616.15,244.8,244.8,0,0,1,110.53-34l13.29-147.89c.45-4.93,2.75-11.45,7.65-10.73a140.28,140.28,0,0,1,10.35,59,148.74,148.74,0,0,0,9.42-62.24c-11,0-19.11-14.34-13.37-23.78l-61.93,21.47-.13,16.45-196.81,64.09c-23.4,7.62-48.27,15.32-72.21,9.62s-45.11-30.45-37.62-53.89a2863.58,2863.58,0,0,0-147,292.91c49.7.88,104.65,10.42,135.32,49.54,22.94,29.25,27.1,68.84,27,106-.24,74.21-13.82,149.62,3,221.89l-27.7,9c25.76,19.08,55.5,37.51,87.4,34.37,50.88-5,83.57-61.8,133.88-70.9,6.5,8.14,1.08,20.06-4.66,28.75a524.57,524.57,0,0,1-85.71,99.69c-13.54,12.24-28.33,24.09-46,28.69-38.43,10-75.94-16.41-106.9-41.26a274.7,274.7,0,0,0-1,110.06c-7.51,11.9-27.25,8.86-36-2.18s-9.52-26.17-10-40.23L1156,2013.38C1049.3,2047.13,951.48,2118.12,839.57,2119c-53.73.44-106.1-15.64-157.1-32.55-10.69-3.55-22.21-7.16-33-3.93-9,2.71-16,9.78-22.26,16.79a414.88,414.88,0,0,0-89.72,162.84c-5.47,19.29-14.67,43.39-34.71,43.76-21.2.4-30.9-26.41-31.57-47.6a242.55,242.55,0,0,1,46.42-149.72l-48.23,33.72c-6.12,4.28-12.85,8.75-20.31,8.44-15-.62-22.24-21.1-15.84-34.72s20.7-21.42,34.08-28.31l80.8-41.56a308.09,308.09,0,0,1-57-28.5,532.42,532.42,0,0,0,132.45-61.37A1004.27,1004.27,0,0,1,810.42,978.66c-20.51-16-44.46-32.88-70.06-28.38-26.83,4.71-43.7,30.74-57.27,54.35l-24,41.68c-6,10.36-12.71,21.43-23.82,25.82s-27-2.8-26.17-14.72a469.87,469.87,0,0,1-113.43,40.32c-14,3-29.52,5.18-41.81-2.15-18.38-11-20.08-36.63-18.13-57.95,15.09-165.7,117-310,226.08-435.65,19.34-22.28,46-46.46,74.3-38,18.78,5.6,30.51,24.11,38.14,42.16a227.24,227.24,0,0,1,17.86,88.24c0,7.9.08,17,6.16,22,3.61,3,8.56,3.78,12.61,6.15,9.85,5.75,12,19.62,8.48,30.45s-11.37,19.63-18,28.91c-15.86,22.21-25.66,50-21.11,76.9l116-1.32c6.67-.08,13.44-.17,19.84-2,12.43-3.61,22-13.35,31-22.57a1176.22,1176.22,0,0,1,334.74-237.53L1081,596c-79.49.25-164.52-1.12-230-46.15-3.7-2.54-7.57-5.59-8.52-10-2.11-9.76,10.84-15.52,20.83-15.72,6.49-.13,14.72,1.86,15.76,8.28,1.65,10.18-14.57,11.17-24.16,7.37a316.18,316.18,0,0,0,197,44.52A445.13,445.13,0,0,1,871,502c56.16,19.79,116.16,28.15,175.67,26.11a318.67,318.67,0,0,1-137.49-68.24c-6.49-5.52-13-15.65-6.71-21.44A468.68,468.68,0,0,0,1148.68,499a1215.83,1215.83,0,0,1-276.24-94.34c-10.71-5.17-23.2-14-20.72-25.65,52.17,33,113.72,49,175.24,54.29s123.42.35,184.87-5.72c-99.62-15.5-203.06-32.47-285.93-89.89C919.14,333,912,327.17,911.08,319s9.37-16.57,15.5-11.1c-6.07,5.82-4.73,16.45.67,22.9s13.63,9.71,21.56,12.52c135.84,48.07,284.56,36.51,428.15,24.35-131.52-2.42-270.15-6.82-382.3-75.57-6.19-3.79-12.86-8.67-13.75-15.87-1.81-14.59,19.42-19.55,33.69-16,5.55,1.38,11.38,3.41,14.75,8s2.66,12.5-2.64,14.65-11.3-6.4-6.56-9.6a45.2,45.2,0,0,0-30.09-2c9.7,15.36,27.71,23.15,45.07,28.52,34.95,10.82,71.49,15.44,107.88,19.26a2648.05,2648.05,0,0,0,359.85,13.17c7.91-.25,16.21-.65,23-4.79,6-3.67,9.93-9.84,13.2-16,30-56.9,12.09-134.54-39.8-172.54,2.1,22.34-16.6,44.51-39,46.22S1416,167.7,1414.71,145.3s18.15-43.9,40.57-44.82c8.17-.33,16.24,1.7,24.08,4,99.81,29.57,181.94,112.79,210.2,213,2.42,8.57,4.48,17.29,8.13,25.41,3.11,6.9,7.32,13.25,11.5,19.56l41.52,62.61c24.65,37.17,49.34,74.4,70.85,113.48,6.62,12,13.13,24.5,23.23,33.83,8.26,7.63,18.5,12.75,28.82,17.22,95.74,41.5,204.83,34.13,308.49,22.23,4.14,4.69,1.49,12.43-3.2,16.57s-10.89,6.17-16,9.85c-17.67,12.84-15.61,39.27-12.29,60.86s3.58,48.64-15.4,59.46a153,153,0,0,0,1.55-86.71c-21.47,24.82-7.68,71.09-34.91,89.41L2116.7,698c-14.53.61-24.21,15.11-29.65,28.6s-10.13,28.83-22.61,36.31l15-45.95c-40.39,24.6-95.6,22.09-133.59-6.07l-.42,34.76c-115.26,3.44-231,6.93-344.6,26.5a32.07,32.07,0,0,1,1.83,27.07l-11.92-18.19c-5.23,6.25-2.44,16,2.35,22.54s11.4,12.11,14.16,19.78c3.91,10.87-2.15,24.3-12.88,28.55s-24.36-1.38-29-12c-3.82-8.82-1.68-19.06-3.66-28.47s-12.44-18.69-20.42-13.32c-9,30.84,13.52,61.13,21.08,92.37,2,8.42,1.27,20-7.06,22.37s-14.87-6.51-19.81-13.53c-19.15-27.23-54.36-42.19-87.26-37.07a178.12,178.12,0,0,1,99.42,84.53c3.88,7.31,6.38,18.12-.7,22.42-5.51,3.35-12.51-.24-17.85-3.87-30-20.35-60-45-96.1-47.74,31.48,20.21,65.55,44,74,80.39,1.51,6.46,1.21,14.9-4.8,17.71-5.08,2.37-10.87-.91-15.5-4.07l-85.22-58.16-18.94,245.81a533.89,533.89,0,0,0,266.13-113.92c4.65-3.77,9.31-7.69,12.68-12.66,5-7.34,6.72-16.34,8.35-25.07l20.56-110.06c6.15-32.9,12.88-67.14,33.15-93.78S1782,801,1811.75,816.36c23.22,12,34.79,39.82,34.63,66s-10,51.16-20.06,75.27c-14,33.36-29.1,67-53.29,93.86-12.28-6.92-16.55-23.18-14.07-37.06s10.21-26.15,17-38.49a337.92,337.92,0,0,0,28.55-68.58c6.39-21.88,7-51.74-13.92-60.72-12.4-5.31-27.35.29-36.71,10s-14.32,22.76-18.76,35.5a933.4,933.4,0,0,0-40.79,163.32c7.39-7.34,21.18.46,23.07,10.7s-3.67,20.23-9,29.16c16,8.31,22.39,28,23.75,45.94a139.54,139.54,0,0,1-7.35,56.2q-4.77,25.35-9.91,50.62c-1,5.09-2.21,10.43-5.65,14.32-3.1,3.5-7.63,5.34-12.07,6.8a117.26,117.26,0,0,1-50.15,5,111.19,111.19,0,0,1-1.06,43.2,86.29,86.29,0,0,1,12-28.68,27.46,27.46,0,0,0,22.35,3.87L1677,1303.1c-5.24,21-12.61,41.37-19.5,61.85C1657.16,1365.82,1657.39,1366.34,1657.78,1366.47Zm-188-1254.28c-27.77-15.08-52.35,13.72-44.34,39,1.95,6.15,13.11,18.62,20.15,21.5,14.41,5.89,36.78,1.13,41.65-13.44,4.16-12.44-2.86-21.48-5.37-37.61C1475,121.93,1474.32,114.68,1469.74,112.19Zm94,158.54c-2.44,20.92-15.38,36.25-21.49,55.08,48.71,5,99.85,7.62,139.72,21.49,3.39-41.31-13.83-66.53-30.9-95.38-33.51-56.66-83.89-107.34-147.79-123.61C1540.57,150.65,1571.17,207.48,1563.78,270.73ZM1371.67,491.06c-42.41,9.15-89,12.35-131.67,14.78-24.44,1.38-45,3.14-64.48,4a736.66,736.66,0,0,1-84.64-1.34c-43.53-3-84.23-16.12-118.23-28.21-12-4.26-23.3-10.33-33.59-10.75.45,0,.9,0,1.35,0,10.07,11.77,26,19.38,41.64,26.87,15.08,7.21,32,15.53,48.37,20.15,10.09,2.85,22.27,3.66,33.58,6.72,10.83,2.92,21.65,7.42,32.25,8.06,22.27,1.35,49.79-1.28,77.92,0,18.1.82,38.21,1.21,55.08,0,7-.5,15.45-6.22,21.5,1.34-8.15,5.47-19.89,6-29.56,6.72-52.29,3.75-99.94-2.07-149.12,0-46.52,2-94.21-7.61-135.7-8.06a472.8,472.8,0,0,0,150.47,48.37c22.26,3.2,45.54-.13,67.18-2.69,32-3.78,65.09-10.4,96.73-16.12,16.34-3,32.88-4.58,48.37-8.06,15.85-3.58,31.24-8.89,45.67-10.75,3.18-.41,5.74,1.52,9.41,1.34,9.5-.47,18.48-6.26,26.87,0,5.48,1,.25-8.7,6.72-6.72,17.19,8.33,28.3,29.92,48.36,30.9-5.32-10.79-14.14-18.1-21.49-26.86.85-5.41-5.56-10.48-6.72-9.41,2.76,2.41,1.8,12.47-1.35,13.44-4.14-7.06-8.06-14.33-20.15-13.44-6-1.05-2.64,7.21-8.06,6.72-10.72-6.45-23.8,1.44-30.9,1.34,1.4-7.85-.35-11.17,1.35-17.46,8-4.56,20.44-11.78,30.89-9.41-.61,10.13-13.67,7.83-18.8,13.44,7.91-2.44,12.23,3.92,18.8,2.68,3.91-.73,5.36-5.09,9.41-5.37a26.69,26.69,0,0,1,16.12,4c-.87-5-5.6-7.17-9.41-9.4-4.33-2.55-10.53-2.9-13.43-6.72,0-5.34,5.23-5.52,9.41-6.72.78-5-4.15-7.79-1.35-10.75,7.54-8.49,30-8.86,37.62,0,13.08-6.74,34.25,5.65,39,14.78.34,3.92-2.53,4.64-4,6.72,10.19,6.36,31.44,14.54,24.18,29.56-7.51-1-6.22-10.8-13.43-12.1-1,4.62.37,17.2,1.34,24.19a23.9,23.9,0,0,1,10.75,5.37c3.38-.26,9.2,8.38,9.41,2.69,8.79-18.89-12-33.35-5.38-45.68,6.32-.1,7.39,7.49,9.41,12.09a70.19,70.19,0,0,1,5.37,34.93c-4.46,5.16-6.48,5.61-6.72,13.44,3.06,1,6.87,1.19,9.4,2.68.42-5.34-3.1-6.75-2.68-12.09,3-4.53,6.91-5.08,9.4-10.75,5-11.34-1.63-29.33,6.72-37.61,5.17,13.5,10.33,15.56,8.06,28.21-1.65,9.23-12.74,14.83-13.43,22.84-.52,5.92,5.48,9.82,4,16.12,7.28,1,5.29-7.25,13.43-5.37.58-4.35-1.76-11.62,2.69-12.09,6.49,4.36,4.28,22.71,2.69,30.9,6.86-1.26,12.72-2.28,16.12,2.68-.61-4.2,2.87-4.29,6.72-4,5,14.47-4.34,24.86-6.72,36.27,3.12-1,10-3.4,9.4,2.69,3.51,1.12,7.37-4.06,9.41,0,.07,6.35-5.17,7.38-6.72,12.09,5.84,4.91,0,21.49,4,28.22,6.18-1.91,14.56-8.69,21.49-5.38.12,8.18-8.94,7.18-13.43,10.75.61,5.66,6.35,6.19,8.06,10.75,5.05-.88,8.54-8.61,14.78-4,2.41,10.91-6.83,10.19-8.06,17.46,9.76.55,22.29-1.68,28.21,2.69-1.15,13.63-28.57,1-33.59,10.75,2.23,2.25,7.89,1.07,12.1,1.34,5.59,7.53,28.45,12.66,16.12,25.53-2.22-7-12.19-12.53-20.15-9.41-.78,10.11,11.89,17.81,17.46,18.81,6.62,1.2,19.79-2.25,30.9-4,90.91-14.51,197.58-15.89,291.54-21.49.22-17-5.89-45.41,2.68-57.77,7.77,7.25,18.8,13.36,29.56,21.49,10.33,7.82,18,19.54,28.21,24.18,18.59,8.48,42.39-2.87,57.78-8.06,11.51-3.87,22.12-9.18,32.24-13.43-1.05-4.71,2-11,2.68-17.47s-3.7-19,5.38-18.8c9.31,1.88.26,22.13,5.37,28.21,6.28-6.23,14.49-7.63,16.13-17.47,1.1-6.67-8.42-17.41,1.34-21.49,7.93.13,3.42,12.7,9.4,14.77,7.12-2.85,4.19-10.87,5.38-17.46.8-4.45,5.05-1.19,4-5.37-.57-2.33-13.77-14.48-14.78-14.78-4.09-1.23-8.35,1-13.44,1.34-8.93.57-18.89-1.38-26.87,0,.44,5.5-2.71,16.26-8.06,20.15-9.44-3.59-2.07-13.18,0-20.15-12.57-1.31-25.26-2.51-39-2.69,2.15,9.14-4.14,19.52-13.43,21.5-3.65-4.32.59-9.35,1.34-13.44,1.75-1.7,11.18-7.45,5.38-8.06-24.51-2-57.71-2.24-79.27-2.68-1.25,5.65-4.13,10-6.72,14.78-2.38,4.42-5.6,10-9.4,13.43-14.5-9.64,12.16-25.91,5.37-29.55-6.32-4.74-11.86,5.62-16.12,10.74-5.26,6.33-9.24,15.23-14.78,18.81-7-5.5-1.15-14.41,2.69-20.15,4.45-6.65,12.5-10.58,14.78-16.12a26.81,26.81,0,0,1-9.41-4c-5.62,5.22-13.14,9.7-18.81,16.12-6.36,7.21-9.23,20.39-18.81,20.15.23-16.43,16-28.69,25.53-40.3-2.11-2.37-7.19-1.76-9.4-4-5.34-1.31-.56,7.5-5.38,6.71-6.4,4.63-14.06,8.25-18.81,14.78-4,5.53-3.2,14.77-10.74,17.47-7.84-7.85.92-20.09,6.71-26.87,5.6-6.55,15.21-9.62,17.47-16.12-8.12-1.74-12.44-7.27-21.5-8.07,1.31,3.48,2.84,10.64-2.68,10.75-9.65-.46-13.39-13.41-18.81-21.49a197.88,197.88,0,0,0-18.81-24.19c-3.72,14.69-4.27,30.08-10.75,43-8.31,16.58-30.2,30.25-49.71,26.86-10-1.74-21-12.83-26.87-21.49-19.81-29.14-16.64-86,0-114.2-10.89-6.12-32-2.08-33.59-17.46,28.53,4.16,50.54,14.84,82,16.12-2.42-7.43-6.1-13.6-12.08-17.47-15.94-1.88-26.46-6.34-39-10.74-8.26-2.91-22.17-4.36-21.5-14.78,18.09-1,36.6,16.19,56.42,13.43-13.59-15.07-21.8-35.51-39-47-5.83,10.63-11.47,25.3-21.49,33.59-3.06,2.52-7.91,3.63-12.1,6.71C1682,464,1669.59,474,1657.83,479c-8.5,3.57-19.7,5.21-29.56,8.07-20.52,5.94-39,11-61.8,14.77-9.12,1.5-22.88,8.66-28.21-2.68,6.32-7.78,17.27-9.83,26.86-13.44,28.77-10.82,59.75-25.17,76.58-43-41.83,19.83-110.51,37.18-166.59,25.53-7.35-1.53-18.63-2.82-20.15-10.75,8.27-5.61,23.74-4,30.9-10.75-5.51-2.1-15-.24-16.12-6.72,8.26-4.72,18.62-1.87,26.87-2.68,27.49-2.72,52.36-16.33,72.54-28.22,15.82-9.31,31.1-21.62,44.34-32.24,3.87-3.1,8.22-11.21,14.78-8.06.33,17.43-24,21.6-32.24,34.93a219.19,219.19,0,0,0,60.45-32.24c5.2-4,12-12,20.15-8.07-9,13.78-24.3,24.11-39,32.25-15.54,8.63-33.14,16.06-49.71,22.84-33.76,13.82-68.28,29.28-102.1,41.65,47.33,8,86.37-1.66,124.94-16.12,23.87-9,47.84-19,64.49-30.9,7.39-5.29,11.13-15.71,21.5-14.78,2.63,12.29-10.37,21.11-17.47,28.21-25.27,25.27-56.16,43.79-87.33,60.46,11.94-4,28.07-6,43-10.75a170.55,170.55,0,0,0,51-26.87c11.8-8.9,24.43-18.05,29.55-30.9,10-25.13-8.11-49.07-22.84-63.15-4.32-.29-5.68,2.38-10.74,1.35-50.62-11.71-104.22-21.26-159.87-17.47-79,5.38-175.79,3.76-256.61,0-59.36-2.76-117.47-9.87-173.31-13.43,85.18,29.27,191.5,29.79,291.54,30.9,3.06,0,6.5,1.13,9.4,1.34,14.89,1.08,30.2-.54,45.68,0,34.16,1.18,69,1.91,100.76,5.37,8.52.93,25.19-2,26.87,10.75-12.8.92-26.42-.84-37.62,0-26.5,2-62,1.6-86,2.69-56.82,2.58-102.38,4-154.5,6.72-40.3,2.07-80.23,2.32-119.57,4-44.64,1.94-87.52-6.17-130.32-6.72,47.76,12.92,100.27,26.25,155.84,33.59,13.75,1.81,28.69,4.41,43,5.37,16.92,1.14,33.94-2.11,51-1.34,3.58.16,7,2.29,10.75,2.69,29.93,3.16,62.91.62,94-1.35,11.53-.73,25.06-6.3,36.27,0-3.11,8.16-12,5.95-17.46,6.72-37.34,5.22-76.32,5.56-111.51,5.37-8.51,0-16.84-1.93-25.53-1.34-38.08,2.59-76.3,10.43-112.85,12.09-21.37,1-37.94,2.35-53.74,2.69-37.06.8-91.07-4.23-133-6.72,37.16,13.31,75.37,23.75,114.19,34.93,40.11,11.55,81.85,17,126.29,21.5,19.07,1.91,38.57-1.54,59.11-2.69,34.75-1.94,65.7-4.35,92.7-9.4,8.78-1.65,18.89-6.07,26.88-1.35C1390.23,490.2,1379.7,489.32,1371.67,491.06Zm91.35,92.7c6.43.74,7.42,6.9,13.44,8.06-2.85-12.7,10.24-9.47,12.09-17.47-3.45-3.72-8.77-5.56-13.44-8.06-1.22,2.36-2.5,4.67-6.72,4,.26-8.77-7.5-9.51-9.4-16.12.16-6.53,6.59-2.8,6.72-6.72-.83-8.88.15-16,5.37-18.81-7.47-5.51-20.45-5.52-21.49-17.46,5.32-2.08,8.21,5.08,10.74,1.34-8.42-7-24.17-21.43-37.61-10.75-3.51-3.69-13.48-8-20.16-4,10.28,3.61,25.41,2.36,28.22,13.44-2.54.15-.93,4.44-4,4-7.13-3.64-18.81-9.83-28.22-6.72,8.84,6.39,18.14,12.32,18.81,26.87a144.85,144.85,0,0,1,28.21,32.24c2.85,4.47,4.18,17.48,13.44,12.1-3.9-18.94-14.52-31.16-24.18-44.34-4.37-2.8-11-3.35-10.75-10.75,8.7-3.33,29.68-1.9,34.93,9.41-1,.29-1.56,1.12-1.35,2.68-3.56,0-7.66.51-9.4-1.34C1450.59,553,1470.61,564.93,1463,583.76Zm283.48-87.33c-28.16,26.47-20,120.6,18.8,123.6,14.74,1.14,22.82-7.75,29.56-17.46-29.42-3.79-14.56-69.37,10.75-67.18-4.33-13.58-10.41-25.42-18.81-34.93C1773.26,504.59,1759.1,497.72,1746.5,496.43ZM1385.1,544.8c-1.42,7.79,5.82.55,0,0ZM1405.25,565c-5.91-5.29-18.22-4.18-20.15-13.44-8-2.27-26.59,1.35-34.93-2.68-53.77,17.87-119.72,23.58-178.69,36.27,60.94,5.12,140.5,2,185.4-21.5,1.11-5.16.58-12,6.72-12.09,7,.58,6.74,8.49,9.4,13.44,8.47,1.17,19.32,4.82,25.53,4,1.81,16.83-18.82,4.63-24.18,6.71,7.15,64.22,4.78,137.28-8.06,190.78,11.8-4.19,20.3-13.91,29.55-21.5,18.2-14.91,38-27.54,49.71-47-6.16-1.89-15.6-.51-17.46-6.72,8.88-9.87,25.67,1.22,34.93,0,3.65,2.63,6,6.5,8.06,10.75,5.7-1.47,10.16-4.17,16.12-5.37-4.12-3.92-9.46-6.85-14.77-2.69-9.25-6.28-21.67-15.54-36.28-12.09-3.08-.5-1.79-5.37-4-6.72-2.4,3.49-7.68,5.56-10.75,1.35,3.23-11.55,14.91-14.65,24.18-20.15-12.4-1.51-25.52,7.5-33.58,14.77-9.69-15.07,12.88-18.7,21.5-24.18-9.13-.72-17.74-2-26.88-2.69-1.52-5.19-5.52-7.91-5.37-14.78,7.68-5.75,25.91-.95,33.59-6.71-6.63-5.31-22.07-15.77-33.59-21.5-8.9-4.42-17.92-4.77-13.43-17.46,18.11-4.61,38.72,5.67,55.08,2.68-8.29-4.24-14.41-10.67-24.19-13.43-4.35.12-.94,8-6.71,6.72C1408.81,575.72,1407.53,569.84,1405.25,565Zm-678.46,92.7c22,20.05,35.18,45.48,47,75.23.14,1.51-1.95,2.1,0,2.69,10.29-7,9.5-23.82,8.06-40.3-2.7-31-6.86-55.8-17.46-82-13.55-33.43-32.29-52.74-65.83-32.24-14,8.55-19.43,16.84-28.22,26.87-2.94,3.36-7.65,6-10.74,9.4-20.36,22.36-37.36,45.5-55.08,69.87-44.42,61-96.73,130.94-123.61,206.89-7.35,20.78-12.71,42.76-18.8,64.49-8.85,31.54-22,61.72-18.81,99.42,2.91,34.65,39.13,32.82,71.2,24.18,38.09-10.26,67.91-30.66,100.76-41.65.2-6.56,8.82-11.73,5.38-17.46-21.12,9.09-63.76,13.67-94,9.4-4.28-.6-12.62.19-13.43-5.37,10.92-5.63,27-1.89,43-2.69,27.29-1.37,55.65-8,75.23-16.12a373.35,373.35,0,0,0,26.87-52.4c-16.17-1.51-31.87,4.24-48.36,4-13.37-.16-30-2.08-37.62-12.09,30.52,1.24,62.78,2.06,92.7-4,1.71-5.83,8.66-12.33,6.72-17.47-40.39,1.8-78.61-2.66-107.48-13.43-6-2.24-15.55-4.42-17.47-10.75,3-4.29,9.6-.84,13.44,0,16.94,3.72,31.27,9.83,48.36,12.1,22.67,3,49.26,1.2,69.87,2.68,5.21-9.12,10.74-17.91,14.77-28.21-26-4.81-50.53-11.62-69.86-20.15-10.54-4.67-28.89-13-29.55-25.53,7.64-1,11.78,6,17.46,9.4s12.47,5.43,18.81,8.07c21.17,8.79,42.85,17.44,68.52,17.46,14.29-26,28.87-51.74,41.65-79.27a311.3,311.3,0,0,1-41.65-14.77c-11.67-5.06-31.09-10.36-30.9-22.84,25.48,9,50.74,25.36,80.61,25.52-.35-3.93,3-4.12,2.68-8.06-11.47-13.67-28.68-29.07-47-39-6-3.23-16.64-4.6-17.46-13.43,21,1.34,30.81,14,47,20.15,7.38,7.4,13.72,15.83,24.18,20.15a152.88,152.88,0,0,0,13.44-26.87c0-2.45-6.76,2.56-6.72-2.69-9.41-29.35-25.2-52.12-43-71.2-5.56-6-17.34-11-14.78-21.5C714.39,645.82,721.38,652.72,726.79,657.65Zm627.41-77.92c-41.64,13.5-80,33.81-116.88,53.74-19.17,10.36-38.46,19.1-56.43,29.55s-34,23-51.05,34.93c-67.36,47-136.62,92.17-185.4,158.53,15.45,1.73,32.08,2.86,48.36,5.38,15.68,2.42,33.32,4.17,44.34,9.4,5.66,2.69,7.85,9,13.43,9.41a521.19,521.19,0,0,0,61.8-21.5c19.49-26.19,36.69-61.56,45.68-96.73,3-11.82,3.39-29.19,14.78-33.59,1,45.83-20.21,85.42-37.62,120.91,26.24-4.56,50.67-14.41,76.58-22.83,27.4-8.91,62.32-26.08,91.36-20.15,17.64-10.12,36.37-19.17,51-32.25.32-12.28,4.31-26.08,6.72-41.65,7.36-47.69,8.79-112.35,0-157.19h-2.69A6.79,6.79,0,0,0,1354.2,579.73Zm92.7,18.8c-13.7-1.54-29-8.58-43-5.37,7.9,3.29,13.51,8.88,21.49,12.09,1.38-5.34,20.73-3.57,25.53,0v5.38c-2.88,2.49-9.84.9-14.78,1.34,1.91,4.39,6.18,5.11,6.72,10.75.81,8.48-4.08,13.16-13.44,13.43,10,5.88,20.8-.92,33.59,0,.18-6.9-7.47-6-9.4-10.74-4.75-14.79,2.29-25.29,8.06-33.59C1454.82,587.38,1448.34,593.25,1446.9,598.53Zm29.56,63.15c-3.08-.6-6.09-8.13-2.69-10.75,1.35,0,1.6-1.09,2.69-1.34,6.85,2.57,9.15,16.79,20.15,10.74-17.52-21.87,11.06-44.11,14.78-65.83-4.3-2-7.94-4.6-14.78-4,.66,17.24-.57,32.58-9.41,40.31-2.07-7.78-13.41-6.3-17.46-12.09.6-6-1-9.8-2.69-13.44-15.69,8.58,1.93,22.85,10.75,26.87,1.15,7.11,16.48,12.16,8.06,20.15-7-5.59-16.78-8.88-29.55-5.37,3.52,1.85,5.81,4.93,5.37,10.75C1467,657.73,1473.34,663.83,1476.46,661.68Zm4-55.08c1.92,3.46,3.15,7.6,8.07,8.06.92-8,1.86-13.84,0-21.5C1483.39,595.17,1482.66,601.61,1480.48,606.6Zm45.68,10.74c4-3.59,7.15-15.2,4-21.49C1522.23,598.5,1520.66,609.7,1526.16,617.34Zm0,13.44c4.5,6.25,7.6,13.9,14.78,17.46,1.66-14.46,11.76-20.49,12.09-36.27,2.06-.32.2-2.21-1.34-2.69C1535.46,608.73,1537.91,626.85,1526.16,630.78ZM1502,638.84c3.26,10.18,15.61,11.27,26.87,13.43-1.57-11.86-15.72-11.14-20.15-20.15-.19-4.22,3.44-4.61,6.72-5.37-1.21-3.72,2.76-12.61-2.69-12.09C1511.94,625.51,1502.41,627.63,1502,638.84Zm43,26.87c4.24-6.07,10.53-10.07,13.44-17.47C1551.09,650.35,1541,656.75,1545,665.71Zm-29.55-5.38c.06,5.32,2.95,7.79,4,12.1,4.17-1.66,8.68-3,9.4-8.06C1523.7,664,1521.63,655.43,1515.42,660.33Zm44.33,4c-.29-1-1.12-1.57-2.68-1.35-8.84,6-13.17,16.39-16.13,28.21a7.36,7.36,0,0,1,5.37,5.38c-5,7.54-15.5,9.57-14.77,22.84-3.16.43-5,2.12-9.4,1.34-7.83-12.85-30.71-15.8-47-8.06,1,6.41-2.1,8.65-1.34,14.78a30.52,30.52,0,0,0,16.12,4c3-3.31,2.24-10.3,8.06-10.75,3.11,1.38,2.78,6.18,2.69,10.75,7.19-1.76,9.33-2.57,16.12-2.69,2.19,4.53-.11,13.54,2.69,17.47,1.23-2.35,4.2-3,8.06-2.69,1.19,2.84,4.09,4,4,8.06-3.38,2.44-9.2,2.44-9.4,8.06,5.17,11.4,14.6,18.54,26.86,22.84,2.59-.54,1.06-5.21,5.38-4,4,2.21,5.9,6.64,9.4,9.41,1-5.78,11.82-7.4,13.44-1.35,4.26-13.84,15.38-35.54,5.37-51-7.25.32-17.47,10-21.49,1.34,1.67-5.48,9.25-5.07,10.74-10.74-4.19-2.08-10.43-2.11-13.43-5.38C1554,707.65,1561.22,686.18,1559.75,664.37Zm-48.36,10.74c-.79-4.13-.35-9.51-5.38-9.4C1506,670.62,1508.67,672.91,1511.39,675.11Zm-39,8.06c3.32.88,7.36-1.16,10.74,0,9.22,3.19,14.47,13.79,24.18,13.44-4.83-8.15-.17-25.8-14.77-24.18-.42,4.06,1.49,10.45-2.69,10.74-3.22-1.71-5.47-4.38-5.37-9.4-4,0-4.57,3.49-8.06,4-2.6-9.73-24.32-12.36-33.59-6.72C1455.15,669,1462.67,680.61,1472.43,683.17Zm60.45,4c.13-3.81,5.86-8.89,0-10.75C1531.47,677.86,1530.11,686.05,1532.88,687.21ZM1514.07,702c3.88.61,4.21,4.76,9.41,4-1.11-3.79,1.89-3.48,1.34-6.71-5.54-1.17-2.5-10.94-5.37-14.78C1514.23,689.58,1515.26,695,1514.07,702Zm53.74,12.09c1,.31,2.65,0,2.69,1.35,5.93-2.14,6.27-9.85,10.75-13.44-3.81-3.35-6.12-8.21-13.44-8.06C1565,700.23,1567.26,710.07,1567.81,714.07Zm-110.17-9.4A576.83,576.83,0,0,1,1301.8,821.55c-7.56,40.35-12.07,83.76-24.18,119.57,30-7.7,73.18-14.69,107.48-10.74,9.39,1.08,11.73,6.37,18.81,10.74,5.35,3.31,10.59,5,14.77,8.06,26,18.88,52.64,43.05,79.27,56.43-9.13-39.14-37.73-55.08-65.83-73.89-11-7.36-24.47-15-29.56-28.22,11.43-8.33,25.86,1,37.62,4,13.39,3.46,27.76,5.11,39,10.74,10.54,5.31,21.4,13.55,30.9,20.16,10.49,7.29,19.58,17.17,30.9,18.8-8.9-24-25.67-39.41-43-55.08-21.9-19.81-50.69-30.22-84.64-36.27-5.64-1-14.23-1-17.47-6.72-.59-7.65,9.94-8.61,14.79-9.41,40.18-6.54,80.85,4.37,108.82,14.78,12.33,11,16.44,30.14,33.58,36.28,2.29-10.54-2.87-22.54-6.72-30.9-10-21.9-19.28-26.74-45.67-32.24-21.36-4.45-42.18-9.26-61.8-13.44-10.75-2.29-22.79.08-29.56-8.06,8-8.36,26-11,40.31-12.09,26.86-2,40.19,12.08,52.39,21.49,10.36,2.63,20.26,5.72,30.9,8.06,2.42-13.7-11.79-22.11-22.84-29.55-9.9-6.67-21.39-15.74-32.24-20.15-22.22-9-51.48-4.74-69.86,0-6,1.55-16.06,6.32-20.15,0,4.62-15.34,21.38-9.37,33.58-14.78,4-1.79,7.14-6.95,12.1-12.09,13.19-13.72,34.16-32.52,26.86-52.4ZM795.31,770.5c5.1-9.37,16.81-25.4,16.12-30.9-2.23-17.74-21.08-4.3-26.87,1.34-5.56,13.33-10.3,23.3-16.12,34.93-8,16-16.31,30.82-24.18,45.68-3.73,7-10.44,14.18-9.41,22.84,5.24-10,13.42-17,28.22-17.46C773.76,809.6,785.11,789.23,795.31,770.5Zm677.12-28.21c-1.22,5.05-7,5.55-13.44,5.37-3.3,7.9-11.7,10.69-14.78,18.81,33.86,1.07,53,16.91,75.24,29.56,1.86-3.07,4.92-4.94,9.4-5.38-.87-4.95-4.59-7-9.4-8.06-.42,4.06,1.49,10.45-2.69,10.75-5.57-3.83-7.87-10.94-10.75-17.47-11.28.09-15.37-2.89-21.49-5.37-.67-7.38,4.34-9.09,4-16.12-9.55.76-11.59,9-17.47,13.43-3.25-.77-3-5.07-4-8.06,4.39-7.25,12.57-10.72,17.47-17.46-5.1.1-10.84-6.11-14.78-2.69C1471.25,739.89,1471.83,741.09,1472.43,742.29ZM1502,753c-1.38,4.51,4.18,2.09,6.72,2.68C1508.9,750.32,1505.25,752.17,1502,753Zm91.36,12.09c3.23.55,2.92-2.46,6.72-1.35.41-3.54-2.81-3.46-5.38-4C1594.78,762.09,1594.38,763.93,1593.34,765.13Zm-65.83,39h2.68V801.4h-2.68Zm-80.61,13.43c9.4.48,20.37,6.47,29.56,2.69C1469.2,817.1,1455.29,811.17,1446.9,817.52Zm-247.2,25.53c-26.68,8.39-53.87,17.45-80.61,26.87-38.31,13.48-79,30.22-118.23,43-14.69,4.78-35.09,11.86-44.33,10.75-6.86-.82-11.09-7.32-18.81-9.4-8.41-2.28-35.09-5.58-40.31-4-9.24,2.75-19.89,26.31-26.86,37.62-22.94,37.2-35,71.41-48.37,114.2-2.89,9.25-6.87,19-6.72,26.87.48,24,14.75,32.35,36.27,32.24,25-.12,42.94-11.26,63.15-20.15,16.18-7.12,32.73-13.41,48.36-20.15,32-13.83,64.26-28.3,96.74-40.31,69-25.53,133.94-53.85,198.83-75.23,14.62-44.5,22.5-95.73,30.9-146.44-1.35,0-1.6-1.09-2.68-1.35C1259.22,824.39,1229.42,833.7,1199.7,843.05Zm-447.38,0c-8.27,7.33-19.83,21.92-28.22,37.62-12.52,23.43-21.55,43.16-14.77,68.51,21-1.84,29.71-14.5,39-29.55,12.28-20,24.85-52.43,14.78-80.61C755.53,837.62,755.3,840.41,752.32,843.05Zm94,28.21c-19.35.2-49.64-.19-68.52,4,.17,5.54-2.33,8.41-1.34,14.78,55.15,1.69,109.74,3.26,157.19,10.75,11.83,1.87,22.95,8.08,33.59,8.06,17,0,38.66-11.16,51.05-16.12,5.29-2.12,12.33-2.55,14.77-8.06C982.18,864.44,907.92,870.64,846.36,871.26Zm-39,32.24c-8.13-.37-33.76-5.93-37.62,6.72,11.87,2.07,31.88,8.69,49.71,10.75,12.42,1.44,20,5.46,26.87,6.72,5.22,1,17.49-11.25,17.47-21.5C845.88,904.69,825.85,904.37,807.4,903.5ZM638.12,1024.42c-5.93,11.08-15.27,21.7-14.78,34.93,13.26,5,19-11.14,24.19-18.81,18.47-27.2,36.3-58.3,51.05-87.32-6.52-12.31-3.32-23.13-5.38-36.28C673.55,951.93,656.64,989.82,638.12,1024.42Zm123.6-102.1c-2.76,3.95-6.07,7.35-8.06,12.09,11.38,7.35,36,14,51.05,20.15,5.31,2.17,13.34,8.6,16.12,8.06,3.62-.7,7.47-9.83,9.41-12.09,4-4.68,10.52-6.94,9.41-13.44C815.79,933.66,788.19,927.08,761.72,922.32ZM841,955.9c-8.22,9.32-18.22,16.59-25.53,25.53-11.22,13.72-20.73,30.94-32.24,47-33.38,46.64-64.83,95.72-91.36,147.78-18.4,36.11-31.63,74.06-47,112.86a904.23,904.23,0,0,0-39,120.91c-21.53,88.74-31.46,188.72-22.84,286.16,4.11,46.49,12.75,91.47,21.5,135.7,8.79,44.47,17.79,87.84,32.24,127.63,3.59,9.88,16.11,23.61,8.06,30.89-13.92-.86-11.56-18-20.15-24.18-31.44,22.31-71.85,35.64-107.48,53.74,27.35,13,57.56,21.12,87.33,30.9,29.56,9.72,58.51,21.55,88.66,30.9s64.5,15.8,98.08,21.5c35.76,6.06,70.11,7.56,106.13,0,30.16-6.33,60.32-18,88.67-30.9s57.92-22.36,86-33.59c57.77-23.11,111.24-53.22,169.28-69.86,1-40.15-7.72-81.06-5.38-122.26,2.38-41.73,9-81,6.72-118.23-2-32.83-9.88-55.83-25.53-73.89-21.79-25.15-54.47-39-95.38-41.64-57.48-3.77-118.48,12.25-162.57,21.49-5.79,1.22-15.79,4.92-20.15-1.34,3.24-13,19.79-9.86,29.56-12.1,33.33-7.62,69.2-17.7,106.14-18.8,32.33-53.73,56.26-115.74,83.29-173.31,9.09-19.37,22.36-36.61,29.56-56.43,6.15-16.93,9.67-35.18,16.12-52.4,12.79-34.15,25.52-67.78,36.27-102.1,5.63-18,10-36,16.13-53.74,24-69,49.58-140.51,57.76-219-16,1-26.38,7.66-40.3,10.75-3.21,6.19-3.51,15.31-6.72,21.5-35.12,8.68-69.15,23.13-104.79,36.27-8.7,3.21-18.51,4.48-26.87,8.06s-15.74,8.49-24.18,12.09c-16.55,7.07-33.28,13.8-51,20.16-51.86,18.54-101.81,41.23-150.47,63.14-17.31,7.8-36.74,15.47-55.09,16.12-31.87,1.14-49.52-15.2-51-41.65-.88-15.18,6-30.74,10.75-45.68,4.87-15.28,9.69-30.9,14.78-43,12-28.41,28.59-49.7,39-76.58-.08-.82-.2-1.59-1.35-1.34C856.8,934,850.31,945.34,841,955.9Zm382.89,348c65.22-110.32,125.71-225.38,169.28-357.36-15.89-7.31-51.74-4.7-69.86-1.35,2.7,25.84-4.44,48-10.75,71.21-15.32,56.41-30.63,108.76-48.36,159.87,2.67.44,9.11-11.15,16.12-6.71,12.52,12.69-17,37.77-17.47,9.4C1249.32,1219.14,1233.44,1264.17,1223.88,1303.86ZM1381.07,1015c-19.15,40.91-38.56,89.83-63.15,141.07-15.55,32.43-35.62,66.4-53.73,99.42-6.35,11.57-17.85,25.35-18.81,33.59-.5,4.21,1.8,10.9,2.68,16.12,3,18,4,32.17,14.78,41.64,24.76,7.64,49.51-2.52,72.55-8,72.83-17.52,139.92-33.3,196.15-64.49-1.46-27.22-.75-71,6.72-103.45-52.69,15.84-103.36,33.67-165.26,40.31-9.54-13.67-3.8-29.1,0-44.34,11.61-46.43,12.12-101.48,12.1-154.5-.08-.82-.2-1.59-1.34-1.35C1382.27,1011.52,1381.69,1013.68,1381.07,1015Zm322.43,48.37c-37.26,37-111,60.41-147.78,99.42-7.93,8.4-11.32,39.06-12.09,55.08-.71,14.68-1.85,31,1.34,41.65,20.23-6.2,38.13-14.71,57.77-21.5-.37-5.45-4.27-7.37-2.68-14.77,2.3-3.52,4.77-6.88,9.4-8.07-4-6.69-9.67-7.12-9.4-14.77.26-7.82,8.39-9,12.09-14.78-33-19.88,13.92-35.37,30.9-44.34,17.15-9.06,25.85-16.76,36.27-28.21,11.9-13.07,30.79-31.32,26.87-48.37C1705.9,1063.68,1705.07,1063.16,1703.5,1063.38Zm16.13,87.33c3.83-5.61,5.29-16.76,4-22.84-2-9.76-13.56-15.9-21.5-22.84-7.15,9.87-16.36,17.67-24.18,26.87,5.6-2.17,20.83-6.85,18.81,5.37-13.93,6-31.36,9.54-47,14.78-15.16,5.07-33.3,7.9-39,22.84C1639.14,1187.18,1711.27,1162.94,1719.63,1150.71Zm-9.41,39c10.09-5.74,16.8-11.59,12.09-24.18-.29-1-1.12-1.57-2.68-1.35-24.28,12.9-52.56,21.78-87.33,24.19-5.34,6.3-17.19,6.09-21.5,13.43C1639.34,1209,1689.44,1201.5,1710.22,1189.67Zm-99.42,39c20.91,9,88.65,11.5,102.11-6.72,4.9-6.63,5.62-17.78-2.69-20.15C1682.32,1216,1632.36,1208.09,1610.8,1228.63Zm29.56,16.12c-3.38,9.61-20.25,5.73-24.18,14.78,10.82,3.12,29.87,6,44.33,5.37,18.9-.81,49.07-2.59,43-22.84C1684.24,1244.35,1660.8,1247.92,1640.36,1244.75Zm-151.81,225.7c38.72.66,64.64-11.49,91.35-22.83C1542.77,1448.54,1513.53,1457.37,1488.55,1470.45Zm40.3,20.16c15.65-3.09,29.08-12.56,43-18.81s29.63-10.81,39-22.84C1582.05,1461.41,1547,1467.54,1528.85,1490.61Zm88.67-21.49c-8.4,6.44-19.58,10.11-28.21,16.12-4.58,3.18-8.06,8.34-12.09,12.08-4.42,4.11-10.67,7.32-12.1,13.44,32.37-9.72,56-28.21,77.93-48.36-.72-4.66,2-12.75-2.69-13.44C1632.5,1455,1626,1462.64,1617.52,1469.12Zm-98.07,12.08c-1.1-4.23-24.81,3.06-36.28,1.35,18,67,22.4,144.86,24.18,217.64.68,27.32,1.73,53.45,1.35,77.92-.75,48.33-8.22,100.84-6.72,150.47a1717.45,1717.45,0,0,0,20.16-200.18c3.4-80.68-4.89-162.49-18.82-227C1503.49,1495.71,1520.36,1484.71,1519.45,1481.2Zm14.78,427.23c42.69-134.65,89.89-264.79,106.13-425.88-10.6,3.3-18.86,13.65-29.56,20.15-14.6,8.87-30.87,16.5-49.7,20.15C1560.9,1656.56,1547.17,1788.34,1534.23,1908.43Zm-18.81-399c18.55,80.18,19.76,172.77,16.12,259.29-3,70.56-16.15,136.8-25.53,198.83-.66,4.4-2.94,11.84,0,16.13,30.78-141.19,44.18-302.36,43-472.91,5-9.34,13.49-15.17,20.15-22.84-.07-.82-.19-1.59-1.34-1.34C1552.22,1496.07,1532.2,1501.12,1515.42,1509.42ZM446,2140.85c16.57,2.33,9.61-27.15,0-26.87C444.42,2122.69,441.72,2133.53,446,2140.85Zm55.09,21.5c-5.62,11.79-12.34,24.54-14.78,33.59-7.5,27.71-1.9,61.49,1.34,91.35,6.31,2.65,12.32,5.6,21.5,5.38-.2-27.86-6.55-53-5.38-76.58.23-4.5,3.06-10,4-14.78,6-29.35,18.1-50.49,21.5-81.95-.08-.82-.2-1.59-1.34-1.34C516.44,2130.94,509.78,2144.09,501.09,2162.35Z"/></svg>